<?xml version="1.0" encoding="utf-8"?>
<!-- Generator: Adobe Illustrator 24.1.3, SVG Export Plug-In . SVG Version: 6.00 Build 0)  -->
<svg version="1.1" xmlns="http://www.w3.org/2000/svg" xmlns:xlink="http://www.w3.org/1999/xlink" x="0px" y="0px"
	 viewBox="0 0 230 36" style="enable-background:new 0 0 230 36;" xml:space="preserve">
<style type="text/css">
	.st0{fill:#5F6368;}
	.st1{fill:#4285F4;}
	.st2{fill:#EA4335;}
	.st3{fill:#FBBC04;}
	.st4{fill:#34A853;}
	.st5{fill:#FFFFFF;}
</style>
<g id="Product_name">
	<g id="_x28_type_product_name_here_x29_">
		<path class="st0" d="M137.2,20.8c0,2.2-0.8,3.9-2.4,5.2c-1.6,1.3-3.6,1.9-5.9,1.9c-2,0-3.9-0.6-5.4-1.8c-1.6-1.2-2.6-2.8-3.2-4.9
			l3-1.2c0.2,0.7,0.5,1.4,0.9,2c0.4,0.6,0.8,1.1,1.3,1.5s1,0.8,1.6,1c0.6,0.2,1.2,0.4,1.9,0.4c1.4,0,2.6-0.4,3.6-1.1
			c0.9-0.7,1.4-1.7,1.4-3c0-1-0.4-1.9-1.1-2.7c-0.7-0.7-2-1.4-4-2.1c-2-0.7-3.2-1.2-3.7-1.4c-2.6-1.3-3.9-3.3-3.9-5.9
			c0-1.8,0.7-3.4,2.2-4.7c1.5-1.3,3.3-1.9,5.4-1.9c1.9,0,3.5,0.5,4.9,1.4c1.4,0.9,2.3,2.1,2.8,3.6l-3,1.2c-0.3-0.9-0.8-1.7-1.6-2.3
			s-1.8-0.9-3-0.9c-1.2,0-2.3,0.3-3.1,1c-0.9,0.6-1.3,1.5-1.3,2.5c0,0.8,0.3,1.6,1,2.2c0.7,0.6,2.3,1.4,4.8,2.2
			c2.5,0.9,4.3,1.9,5.4,3.1C136.7,17.5,137.2,19,137.2,20.8z"/>
		<path class="st0" d="M148,27.9c-2.5,0-4.6-0.9-6.2-2.6c-1.6-1.7-2.4-3.9-2.4-6.5c0-2.6,0.8-4.7,2.4-6.5c1.7-1.7,3.7-2.6,6.2-2.6
			c1.7,0,3.2,0.4,4.5,1.3s2.3,2.1,2.9,3.6l-2.9,1.2c-0.9-2.1-2.5-3.2-4.7-3.2c-1.4,0-2.7,0.6-3.8,1.8c-1,1.2-1.6,2.6-1.6,4.3
			c0,1.7,0.5,3.2,1.6,4.3c1.1,1.2,2.3,1.8,3.8,1.8c2.3,0,4-1.1,4.9-3.2l2.8,1.2c-0.6,1.5-1.6,2.7-2.9,3.6
			C151.3,27.5,149.8,27.9,148,27.9z"/>
		<path class="st0" d="M157.9,2.7h3.2v7.8l-0.1,2.3h0.1c0.5-0.8,1.2-1.5,2.2-2.1s2-0.8,3.1-0.8c2.1,0,3.7,0.6,4.8,1.8
			c1.1,1.2,1.7,2.9,1.7,5.1v10.6h-3.2v-10c0-3-1.3-4.6-4-4.6c-1.3,0-2.4,0.5-3.3,1.6c-0.9,1.1-1.3,2.3-1.3,3.7v9.2h-3.2V2.7z"/>
		<path class="st0" d="M175.3,18.9c0-2.6,0.8-4.7,2.5-6.5c1.7-1.7,3.7-2.6,6.2-2.6c2.5,0,4.6,0.9,6.2,2.6c1.7,1.7,2.5,3.9,2.5,6.5
			c0,2.6-0.8,4.8-2.5,6.5c-1.6,1.7-3.7,2.6-6.2,2.6c-2.5,0-4.6-0.9-6.2-2.6C176.1,23.7,175.3,21.5,175.3,18.9z M178.5,18.9
			c0,1.8,0.5,3.3,1.6,4.4c1.1,1.1,2.4,1.7,3.9,1.7c1.6,0,2.9-0.6,3.9-1.7c1.1-1.1,1.6-2.6,1.6-4.4c0-1.8-0.5-3.3-1.6-4.4
			c-1.1-1.1-2.4-1.7-3.9-1.7c-1.5,0-2.9,0.6-3.9,1.7C179,15.7,178.5,17.1,178.5,18.9z"/>
		<path class="st0" d="M198.5,2.7v24.7h-3.2V2.7H198.5z"/>
		<path class="st0" d="M208.4,9.9c2.3,0,4.2,0.6,5.6,1.9c1.4,1.3,2,3,2,5.2v10.4h-3V25h-0.1c-1.3,1.9-3.1,2.9-5.2,2.9
			c-1.9,0-3.4-0.6-4.7-1.7c-1.3-1.1-1.9-2.5-1.9-4.1c0-1.7,0.7-3.1,2-4.2c1.3-1,3.1-1.6,5.3-1.6c1.9,0,3.4,0.3,4.7,1v-0.7
			c0-1.1-0.4-2-1.3-2.8c-0.9-0.8-1.9-1.2-3.1-1.2c-1.8,0-3.2,0.7-4.2,2.2l-2.8-1.8C203.1,11,205.4,9.9,208.4,9.9z M204.3,22.2
			c0,0.8,0.4,1.5,1.1,2.1c0.7,0.6,1.5,0.8,2.5,0.8c1.3,0,2.5-0.5,3.6-1.5c1-1,1.6-2.2,1.6-3.5c-1-0.8-2.4-1.2-4.1-1.2
			c-1.3,0-2.4,0.3-3.2,0.9S204.3,21.3,204.3,22.2z"/>
		<path class="st0" d="M222.5,27.4h-3.2V10.5h3v2.8h0.1c0.3-0.9,1-1.7,2-2.3c1-0.6,2-0.9,3-0.9c0.9,0,1.7,0.1,2.3,0.4l-1,3.1
			c-0.4-0.2-1-0.2-1.9-0.2c-1.2,0-2.2,0.5-3.1,1.4c-0.9,1-1.3,2.1-1.3,3.4V27.4z"/>
	</g>
</g>
<g id="Google_logo">
	<g id="_x31_11x36px">
		<path class="st1" d="M26.9,12.4c0.2,0.9,0.2,1.8,0.2,2.7c0,2.9-0.7,6.4-3.2,8.9c-2.4,2.6-5.6,3.9-9.7,3.9C6.5,27.9,0,21.7,0,14
			C0,6.3,6.5,0,14.1,0c4.2,0,7.3,1.7,9.5,3.8L21,6.5c-1.6-1.5-3.8-2.7-6.9-2.7c-5.6,0-10,4.5-10,10.1c0,5.6,4.4,10.1,10,10.1
			c3.6,0,5.7-1.5,7-2.8c1.1-1.1,1.8-2.7,2.1-5.1h-9.1v-3.8L26.9,12.4z"/>
		<path class="st2" d="M46.7,18.9c0,5.2-4,9-9,9s-9-3.8-9-9c0-5.2,4-9,9-9S46.7,13.7,46.7,18.9z M42.8,18.9c0-3.2-2.3-5.4-5-5.4
			s-5,2.2-5,5.4c0,3.2,2.3,5.4,5,5.4S42.8,22.1,42.8,18.9z"/>
		<path class="st3" d="M66.5,18.9c0,5.2-4,9-9,9s-9-3.8-9-9c0-5.2,4-9,9-9S66.5,13.7,66.5,18.9z M62.6,18.9c0-3.2-2.3-5.4-5-5.4
			s-5,2.2-5,5.4c0,3.2,2.3,5.4,5,5.4S62.6,22.1,62.6,18.9z"/>
		<path class="st1" d="M85.5,10.5v16.1c0,6.6-3.9,9.4-8.5,9.4c-4.3,0-7-2.9-7.9-5.3l3.4-1.4c0.6,1.5,2.1,3.2,4.5,3.2
			c3,0,4.8-1.8,4.8-5.3v-1.3h-0.1c-0.9,1.1-2.6,2-4.7,2c-4.5,0-8.5-3.9-8.5-9c0-5.1,4-9,8.5-9c2.1,0,3.8,1,4.7,2h0.1v-1.5H85.5z
			 M82,19c0-3.2-2.1-5.5-4.8-5.5c-2.7,0-4.9,2.3-4.9,5.5c0,3.1,2.2,5.4,4.9,5.4C79.9,24.4,82,22.1,82,19z"/>
		<path class="st4" d="M92.5,1v26.4h-3.9V1H92.5z"/>
		<path class="st2" d="M107.8,21.9l3.1,2c-1,1.5-3.4,4-7.5,4c-5.1,0-8.9-4-8.9-9c0-5.3,3.8-9,8.5-9c4.7,0,6.9,3.7,7.7,5.7l0.4,1
			l-12,5c0.9,1.8,2.3,2.7,4.3,2.7S106.8,23.4,107.8,21.9z M98.4,18.7l8-3.3c-0.4-1.1-1.8-1.9-3.3-1.9C101,13.4,98.3,15.2,98.4,18.7z
			"/>
	</g>
</g>
<g id="Guides_1_">
</g>
<g id="specs">
</g>
</svg>
